<svg width="1000" height="200" viewBox="0 0 1000 200" xmlns="http://www.w3.org/2000/svg">
  <defs>
    <linearGradient id="starGradient" x1="0%" y1="0%" x2="100%" y2="100%">
      <stop offset="0%" style="stop-color:#00FFFF;stop-opacity:1" />
      <stop offset="100%" style="stop-color:#00BFFF;stop-opacity:1" />
    </linearGradient>
  </defs>
  
  <!-- Background -->
  <rect width="100%" height="100%" fill="transparent"/>
  
  <!-- 4-Pointed Stars (Static) -->
  
  <!-- Star 1 -->
  <g transform="translate(100, 50)">
    <rect x="-2" y="-10" width="4" height="20" fill="#00FFFF" opacity="0.8"/>
    <rect x="-10" y="-2" width="20" height="4" fill="#00FFFF" opacity="0.8"/>
  </g>
  
  <!-- Star 2 -->
  <g transform="translate(300, 150)">
    <rect x="-1.5" y="-7" width="3" height="14" fill="#00BFFF" opacity="0.6"/>
    <rect x="-7" y="-1.5" width="14" height="3" fill="#00BFFF" opacity="0.6"/>
  </g>
  
  <!-- Star 3 -->
  <g transform="translate(500, 80)">
    <rect x="-2" y="-8" width="4" height="16" fill="#4A9EFF" opacity="0.7"/>
    <rect x="-8" y="-2" width="16" height="4" fill="#4A9EFF" opacity="0.7"/>
  </g>
  
  <!-- Star 4 -->
  <g transform="translate(700, 120)">
    <rect x="-2" y="-8" width="4" height="16" fill="#00FFFF" opacity="0.8"/>
    <rect x="-8" y="-2" width="16" height="4" fill="#00FFFF" opacity="0.8"/>
  </g>
  
  <!-- Star 5 -->
  <g transform="translate(900, 60)">
    <rect x="-1.5" y="-7" width="3" height="14" fill="#00BFFF" opacity="0.6"/>
    <rect x="-7" y="-1.5" width="14" height="3" fill="#00BFFF" opacity="0.6"/>
  </g>
  
  <!-- Small stars -->
  <circle cx="200" cy="100" r="2" fill="#00FFFF" opacity="0.5"/>
  <circle cx="400" cy="40" r="1.5" fill="#00BFFF" opacity="0.4"/>
  <circle cx="600" cy="160" r="2" fill="#4A9EFF" opacity="0.5"/>
  <circle cx="800" cy="80" r="1.5" fill="#00FFFF" opacity="0.4"/>
  
  <!-- Constellation Lines -->
  <line x1="100" y1="50" x2="300" y2="150" stroke="#00BFFF" stroke-width="1" opacity="0.3"/>
  <line x1="300" y1="150" x2="500" y2="80" stroke="#00BFFF" stroke-width="1" opacity="0.3"/>
  <line x1="500" y1="80" x2="700" y2="120" stroke="#00BFFF" stroke-width="1" opacity="0.3"/>
  <line x1="700" y1="120" x2="900" y2="60" stroke="#00BFFF" stroke-width="1" opacity="0.3"/>
</svg>
